<?xml version="1.0" encoding="UTF-8"?>
<svg id="Capa_1" data-name="Capa 1" xmlns="http://www.w3.org/2000/svg" viewBox="0 0 3191.6 3191.6">
  <defs>
    <style>
      .cls-1, .cls-2 {
        stroke-width: 0px;
      }

      .cls-2 {
        fill: #fff;
      }
    </style>
  </defs>
  <rect class="cls-2" y="0" width="3191.6" height="3191.6" rx="319.69" ry="319.69"/>
  <path class="cls-1" d="m2316.92,1783.63c-3.64-.52-6.14-1.2-8.64-1.19-89.99.06-179.98.27-269.97.26-70.66,0-141.32-.28-211.98-.42-3,0-6-.02-9,.06-10.03.25-18.72,2.78-27.47,8.88-16.58,11.54-34.45,21.28-52.06,31.29-12.52,7.11-26.27,11.35-39.86,16.07-13.17,4.58-26.7,6.97-40.17,9.92-2.26.5-4.6.71-6.92.88-2.32.17-4.71-.17-6.99.23-24.53,4.25-48.99,2.9-73.6.2-13.53-1.49-26.73-3.8-39.99-6.83-13.22-3.03-25.6-7.89-38.17-12.6-17.77-6.67-34.15-15.92-49.93-26.25-11.45-7.5-23.47-14.17-33.28-24.08-17.31-17.47-34.9-34.61-49.72-54.38-9.29-12.4-15.84-26.28-22.98-39.85-6.82-12.94-12.27-26.44-16.73-40.45-5.38-16.93-9.04-34.06-12.29-51.52-4.4-23.62-3.64-47.23-2.29-70.67.76-13.22,2.09-26.95,6.39-40.02,3.78-11.47,5.14-23.78,9.4-35.04,5.75-15.21,12.92-29.91,20.11-44.53,3.84-7.8,9.24-14.81,13.51-22.42,11.79-20.95,29.33-36.87,45.86-53.78,12.5-12.78,26.38-23.54,41.59-32.67,17.11-10.27,34.37-20.29,53.44-26.73,10.19-3.44,20.14-7.64,30.4-10.85,6.91-2.16,14.17-3.23,21.29-4.74,24.96-5.27,50.27-4.45,75.52-4.11,6.56.09,13.11,1.63,19.66,2.52,2.64.36,5.26.99,7.91,1.11,12.27.56,23.75,4.44,35.54,7.38,16.33,4.08,31.95,9.91,46.84,17.24,15.19,7.48,30.16,15.55,44.14,25.41,19.45,13.71,35.38,31.09,51.68,48.03,8.07,8.39,14.44,18.58,20.68,28.52,7.41,11.79,14.03,24.09,20.66,36.35,5.45,10.09,14.09,14.52,25.01,14.55,50,.14,99.99.06,149.99.06,219.99,0,439.97.07,659.96-.18,11.22-.01,18.98,3.92,24.69,13.04.69,1.1,1.68,2.2,1.88,3.41,1.53,9.14,3.33,18.26,4.21,27.47,1.44,15.23,2.43,30.52,3.25,45.8.55,10.31.7,20.65.66,30.98-.09,22.97.95,45.97-2.57,68.84-1.06,6.88-.88,13.96-1.05,20.95-.29,11.63.62,23.35-3.07,34.68-.3.93-.24,1.98-.34,2.97-1.62,16.83-2.81,33.71-4.99,50.47-1.48,11.41-4.4,22.63-6.57,33.95-1.74,9.08-3.15,18.23-4.99,27.29-2.29,11.25-4.89,22.44-7.31,33.66-1.66,7.71-3.03,15.49-4.93,23.14-1.82,7.31-4.25,14.46-6.26,21.73-2.97,10.75-5.69,21.58-8.71,32.32-2.92,10.41-5.81,20.84-9.2,31.1-3.37,10.23-7.09,20.36-11.1,30.35-9.92,24.73-20.38,49.25-30.51,73.87-9.36,22.73-21.11,44.06-32.05,65.86-8,15.95-18.28,30.76-26.43,46.64-14.24,27.76-33.17,52.42-50.55,78.06-20.94,30.88-45.01,59.45-69.58,87.53-9.73,11.12-19.7,22.06-30.07,32.58-18.54,18.79-36.83,37.9-56.39,55.6-23.07,20.87-46.98,40.88-71.29,60.3-16.59,13.25-34.93,24.27-51.7,37.31-25.15,19.54-52.82,35.02-79.96,51.34-17.55,10.56-35.79,20.02-54,29.43-17.6,9.11-35.42,17.84-53.41,26.15-13.9,6.42-28.05,12.36-42.38,17.75-18.65,7.01-37.58,13.28-56.4,19.84-14.51,5.06-28.91,10.5-43.59,15-11.86,3.64-24.11,6-36.13,9.15-13.31,3.5-26.48,7.56-39.85,10.79-8.95,2.15-18.14,3.27-27.23,4.85-8.09,1.4-16.15,2.91-24.26,4.18-12.76,2-25.51,4.1-38.32,5.68-15.13,1.85-30.31,3.19-45.48,4.75-9.23.95-18.46,1.95-27.7,2.81-4.64.43-9.3.87-13.96.88-40.33.11-80.66.28-120.99.04-8.59-.05-17.17-1.78-25.77-2.59-5.3-.5-10.64-.57-15.93-1.12-9.21-.97-18.39-2.2-27.58-3.25-2.97-.34-5.99-.32-8.96-.73-6.85-.95-13.67-2.1-20.52-3.07-2.96-.42-5.96-.59-8.94-.87-14.49-1.38-29.03-1.83-43.25-5.94-9.44-2.73-19.54-3.04-29.23-5.04-8.01-1.65-15.82-4.25-23.75-6.28-7.32-1.88-14.74-3.36-22.01-5.38-12.59-3.49-25.12-7.19-37.64-10.91-9.4-2.8-18.74-5.76-28.1-8.69-9.64-3.01-19.32-5.89-28.88-9.15-9.6-3.28-19.15-6.77-28.57-10.52-17.51-6.98-35.15-13.71-52.32-21.47-23.78-10.75-47.38-21.95-70.66-33.74-15.1-7.65-29.68-16.38-44.16-25.18-22.55-13.7-45.04-27.53-67.13-41.96-15.56-10.16-30.69-21.03-45.49-32.27-15.6-11.84-30.45-24.64-45.86-36.74-23.98-18.82-46.57-39.21-68.09-60.74s-43.1-43.09-63.34-65.81c-19.12-21.46-36.98-44.09-54.56-66.85-13.34-17.28-25.42-35.54-37.95-53.45-5.42-7.76-10.7-15.62-15.78-23.61-5.77-9.08-11.44-18.24-16.81-27.56-10.57-18.35-21.41-36.58-31.19-55.35-9.08-17.42-17.08-35.4-25.26-53.27-7.7-16.83-15.41-33.67-22.39-50.81-6.4-15.71-12.04-31.74-17.64-47.76-4.85-13.88-9.44-27.87-13.62-41.96-3.44-11.59-5.97-23.45-9.17-35.12-1.98-7.24-4.61-14.31-6.66-21.53-1.78-6.32-3.36-12.71-4.65-19.14-1.75-8.73-2.94-17.57-4.74-26.28-2.12-10.29-4.7-20.49-6.93-30.76-.56-2.58-.37-5.32-.82-7.93-.78-4.52-1.79-9-2.72-13.49-.2-.98-.57-1.93-.68-2.91-1.56-13.82-3.03-27.64-4.65-41.45-.65-5.59-1.74-11.13-2.36-16.72-.69-6.27-1.09-12.58-1.6-18.87-.9-11.27-1.8-22.54-2.67-33.81-.38-4.98-.98-9.97-.98-14.96-.01-39.99-.3-80,.34-119.98.3-18.59,2.32-37.16,3.87-55.72,1.02-12.22,2.23-24.45,4.03-36.57,1.88-12.71,4.74-25.28,6.85-37.96,1.79-10.74,2.81-21.6,4.77-32.3,1.77-9.67,4.36-19.2,6.55-28.8,1.76-7.68,3.51-15.36,5.18-23.06,1.67-7.71,2.93-15.52,4.96-23.13,1.77-6.6,4.46-12.95,6.57-19.46,1.51-4.65,2.89-9.36,4.08-14.11,2.46-9.87,4.44-19.88,7.2-29.66,2.65-9.4,5.83-18.66,9.13-27.85,3.29-9.15,6.96-18.17,10.56-27.21,5.89-14.81,11.53-29.73,17.85-44.35,8.29-19.16,16.82-38.24,25.89-57.04,6.67-13.82,14.25-27.2,21.64-40.66,9.54-17.38,18.93-34.86,29.05-51.89,7.47-12.58,15.91-24.59,24.11-36.73,10.25-15.17,20.6-30.27,31.11-45.26,3.35-4.78,7.36-9.1,11.08-13.62,18.73-22.73,37.03-45.83,56.28-68.1,31.51-36.47,66-70.06,102.67-101.29,23.41-19.93,46.57-40.24,72.41-57.23,18.76-12.33,36.28-26.55,55.12-38.74,20.81-13.47,42.35-25.84,63.85-38.22,15.55-8.95,31.29-17.65,47.41-25.52,19.07-9.31,38.59-17.71,57.99-26.33,14.01-6.22,28.09-12.28,42.23-18.2,8.09-3.39,16.28-6.61,24.58-9.43,14.53-4.93,29.12-9.72,43.82-14.12,15.34-4.6,30.84-8.67,46.26-13,12.93-3.63,25.78-7.51,38.78-10.87,7.93-2.05,16.08-3.22,24.09-4.97,9.93-2.17,19.8-4.66,29.74-6.78,8.08-1.72,16.19-3.42,24.36-4.57,12.77-1.8,25.61-3.14,38.42-4.63,19.12-2.23,38.23-4.44,57.35-6.64,1.65-.19,3.32-.34,4.98-.35,45.31-.32,90.62-.65,135.93-.87,8.66-.04,17.34.11,25.98.67,8.92.58,17.8,1.77,26.69,2.7,1.99.21,3.96.54,5.96.71,16.56,1.36,33.18,2.21,49.66,4.2,11.09,1.33,21.98,4.25,32.96,6.48.97.2,1.89.66,2.87.81,10.08,1.56,20.23,2.72,30.22,4.72,8.35,1.67,16.51,4.34,24.77,6.49,6.36,1.66,12.79,3.08,19.13,4.82,13.88,3.81,27.75,7.66,41.57,11.66,14.42,4.17,28.94,8.07,43.13,12.94,22.79,7.84,45.95,14.59,67.87,25.03,27.34,13.02,55.62,24.09,82.82,37.39,22.58,11.04,44.36,23.77,66.14,36.37,15.77,9.12,31.16,18.95,46.33,29.04,15.19,10.1,29.9,20.94,44.83,31.43,7.49,5.26,15.13,10.32,22.48,15.77,7.62,5.66,15.16,11.46,22.41,17.58,12,10.13,23.48,20.91,35.67,30.81,20.64,16.75,39.46,35.39,58.22,54.16,23.84,23.84,47.52,47.85,68.84,73.97,17.38,21.29,35.93,41.66,50.82,64.96,7.87,12.32,17.37,23.59,25.58,35.71,9.87,14.56,19.39,29.36,28.61,44.34,9.22,14.98,18.03,30.22,26.73,45.52,8.54,15.02,16.93,30.13,24.98,45.42,3.95,7.5,4.76,15.87,3.82,24.27-.88,7.96-9.65,15.64-18.74,16.04-23.63,1.04-47.27,2.43-70.92,2.54-74.99.36-149.99.44-224.98.16-39.99-.15-79.97-1.58-119.96-1.81-12.39-.07-21.47-5.39-29.45-13.8-10.8-11.38-21.35-23-32.18-34.35-18.77-19.66-39.15-37.56-59.43-55.64-21.84-19.47-45.42-36.63-69.35-52.97-31.53-21.53-65.05-40.22-99.86-56.29-13.9-6.42-27.56-13.41-41.74-19.14-12.06-4.87-24.7-8.3-37.08-12.39-11.15-3.69-22.2-7.69-33.45-11.03-7.22-2.15-14.78-3.16-22.09-5.03-7.93-2.02-15.7-4.65-23.63-6.61-7.66-1.9-15.42-3.44-23.18-4.86-7.79-1.43-15.62-2.82-23.49-3.7-15.49-1.72-31.01-4.07-46.55-4.35-35.97-.67-71.96-.33-107.95-.25-11.27.03-22.68-.83-33.58,3.29-.91.34-1.97.26-2.97.38-13.47,1.52-27.01,2.61-40.4,4.71-9.05,1.42-17.87,4.35-26.82,6.45-7.68,1.8-15.46,3.22-23.11,5.12-8.25,2.04-16.46,4.3-24.61,6.73-9.66,2.88-19.26,6-28.85,9.12-9.3,3.02-18.6,6.08-27.84,9.3-34.66,12.07-67.43,28.3-99.32,46.27-20.11,11.33-40.5,22.35-59.18,36.03-13.17,9.65-25.62,20.28-38.96,29.69-27.67,19.52-51.5,43.35-75.47,66.93-13.03,12.82-24.82,26.94-36.6,40.96-10.93,13-21.51,26.32-31.48,40.07-10.14,13.99-19.17,28.79-29,43.01-11.72,16.95-20.75,35.4-30.11,53.64-9.31,18.16-18.56,36.42-26.58,55.18-6.67,15.61-11.57,31.99-17.14,48.06-3.53,10.19-7.02,20.4-10.25,30.68-2.15,6.82-3.83,13.79-5.68,20.71-2.19,8.23-4.41,16.45-6.47,24.72-1.82,7.32-3.51,14.68-5.12,22.05-1.41,6.43-3.03,12.85-3.85,19.36-1.77,14.13-3.1,28.31-4.55,42.48-.31,2.98-.1,6.03-.57,8.97-6.89,43.77-3.22,87.8-2.69,131.7.2,16.11,4.16,32.17,6.4,48.26.23,1.65.54,3.3.62,4.96.73,14.24,3.87,28.01,7.49,41.75,2.17,8.26,3.14,16.82,4.88,25.2,1.2,5.79,2.51,11.58,4.28,17.21,5.78,18.39,12.01,36.65,17.68,55.07,7.71,25.06,18.68,48.78,29.84,72.37,6.78,14.33,15.91,27.56,22.49,41.96,5.74,12.56,12.82,24.2,20.08,35.78,6.59,10.51,13.91,20.57,21.01,30.76,5.77,8.28,11.46,16.63,17.64,24.6,6.99,9,14.35,17.72,21.79,26.36,10.92,12.68,21.82,25.38,33.16,37.67,6.19,6.71,13.14,12.75,19.97,18.84,16.92,15.08,33.23,30.97,51.14,44.78,25.04,19.29,49.8,39.18,77.48,54.77,23.49,13.23,46.64,27.03,71.29,38.23,17.82,8.1,35.08,17.12,54.14,22.42,13.39,3.72,25.99,10.16,39.23,14.54,11.15,3.69,22.73,6.06,34.07,9.2,7.57,2.09,15.01,4.7,22.6,6.71,6.67,1.77,13.46,3.09,20.22,4.52,6.77,1.43,13.54,2.92,20.37,4.09,8.46,1.46,16.93,3.06,25.47,3.85,19.17,1.79,38.38,3.19,57.59,4.59,8.97.65,17.98,1.42,26.95,1.3,28.97-.41,58.01-.18,86.85-2.4,11.1-.85,22.41-1.93,33.53-3.46,11.39-1.56,22.57-4.62,33.89-6.77,9.36-1.78,18.85-2.9,28.17-4.88,7.99-1.7,15.83-4.13,23.71-6.36,5.66-1.6,11.18-3.77,16.91-5.03,16.35-3.58,31.81-9.61,47.37-15.64,13.7-5.31,28.16-8.54,41.45-15.16,17.49-8.72,35.44-16.55,52.67-25.73,17.8-9.48,35.27-19.67,52.35-30.4,14.08-8.85,27.73-18.48,40.96-28.57,26.62-20.3,52.12-41.96,76.21-65.23,28.14-27.17,54.38-56.05,77.42-87.72,12.84-17.64,26.33-34.91,37.82-53.4,16.34-26.29,32.15-52.95,45.77-80.87,10.04-20.58,18.16-41.88,26.7-63.05,1.67-4.13,3.94-8.01,6.49-13.13v-.02Z"/>
</svg>